HIERARCHY
ROOT SpineBase
{
  OFFSET 0.000000 0.000000 0.000000
  CHANNELS 6 Xposition Yposition Zposition Zrotation Xrotation Yrotation
  JOINT SpineMid
  {
    OFFSET -0.000000 31.796324 0.000000
    CHANNELS 3 Zrotation Xrotation Yrotation
    JOINT SpineShoulder
    {
      OFFSET -0.179643 23.649348 -0.708021
      CHANNELS 3 Zrotation Xrotation Yrotation
      JOINT Neck
      {
        OFFSET -0.122431 7.849146 -0.556161
        CHANNELS 3 Zrotation Xrotation Yrotation
        JOINT Head
        {
          OFFSET -5.446349 7.176612 6.783327
          CHANNELS 3 Zrotation Xrotation Yrotation
          End Site
          {
            OFFSET 0 0 0
          }
        }
      }
      JOINT ShoulderLeft
      {
        OFFSET -3.675519 -10.706838 11.780458
        CHANNELS 3 Zrotation Xrotation Yrotation
        JOINT ElbowLeft
        {
          OFFSET 0.195786 -6.288466 -24.964674
          CHANNELS 3 Zrotation Xrotation Yrotation
          JOINT WristLeft
          {
            OFFSET -4.233556 -20.973691 8.699307
            CHANNELS 3 Zrotation Xrotation Yrotation
            JOINT HandLeft
            {
              OFFSET -1.413490 -2.428973 -1.540488
              CHANNELS 3 Zrotation Xrotation Yrotation
              JOINT HandTipLeft
              {
                OFFSET -1.853899 -0.713771 6.219490
                CHANNELS 3 Zrotation Xrotation Yrotation
                End Site
                {
                  OFFSET 0 0 0
                }
              }
              JOINT ThumbLeft
              {
                OFFSET 0.722356 -1.012766 -5.268356
                CHANNELS 3 Zrotation Xrotation Yrotation
                End Site
                {
                  OFFSET 0 0 0
                }
              }
            }
          }
        }
      }
      JOINT ShoulderRight
      {
        OFFSET 1.807580 -2.819361 -14.836234
        CHANNELS 3 Zrotation Xrotation Yrotation
        JOINT ElbowRight
        {
          OFFSET -1.300583 -23.669063 -6.252828
          CHANNELS 3 Zrotation Xrotation Yrotation
          JOINT WristRight
          {
            OFFSET -6.216218 -23.017493 2.465221
            CHANNELS 3 Zrotation Xrotation Yrotation
            JOINT HandRight
            {
              OFFSET -0.413084 -5.673335 1.892374
              CHANNELS 3 Zrotation Xrotation Yrotation
              JOINT HandTipRight
              {
                OFFSET -1.650194 -7.133850 1.654471
                CHANNELS 3 Zrotation Xrotation Yrotation
                End Site
                {
                  OFFSET 0 0 0
                }
              }
              JOINT ThumbRight
              {
                OFFSET -3.265814 2.449379 2.721850
                CHANNELS 3 Zrotation Xrotation Yrotation
                End Site
                {
                  OFFSET 0 0 0
                }
              }
            }
          }
        }
      }
    }
  }
  JOINT HipLeft
  {
    OFFSET -1.853809 0.965197 0.534436
    CHANNELS 3 Zrotation Xrotation Yrotation
    JOINT KneeLeft
    {
      OFFSET 3.751376 -31.580887 -11.846928
      CHANNELS 3 Zrotation Xrotation Yrotation
      JOINT AnkleLeft
      {
        OFFSET 7.697458 -32.183707 -2.482136
        CHANNELS 3 Zrotation Xrotation Yrotation
        JOINT FootLeft
        {
          OFFSET -3.475773 -2.173841 7.021089
          CHANNELS 3 Zrotation Xrotation Yrotation
          End Site
          {
            OFFSET 0 0 0
          }
        }
      }
    }
  }
  JOINT HipRight
  {
    OFFSET 0.066087 0.876127 -7.506064
    CHANNELS 3 Zrotation Xrotation Yrotation
    JOINT KneeRight
    {
      OFFSET 0.330927 -27.621147 -3.957068
      CHANNELS 3 Zrotation Xrotation Yrotation
      JOINT AnkleRight
      {
        OFFSET 9.651105 -33.602378 -2.213615
        CHANNELS 3 Zrotation Xrotation Yrotation
        JOINT FootRight
        {
          OFFSET -11.945381 -2.586428 -5.289584
          CHANNELS 3 Zrotation Xrotation Yrotation
          End Site
          {
            OFFSET 0 0 0
          }
        }
      }
    }
  }
}
MOTION
Frames: 16
Frame Time: 0.033333
95.622389 68.731220 374.852671 0.000000 0.000000 76.570478 -0.000000 0.000000 -76.570478 -0.000000 0.000000 0.000000 -0.000000 0.000000 0.000000 0.000000 0.000000 0.000000 -0.000000 0.000000 0.000000 -0.000000 0.000000 0.000000 -0.000000 0.000000 0.000000 -0.000000 0.000000 0.000000 0.000000 0.000000 0.000000 0.000000 0.000000 0.000000 -0.000000 0.000000 0.000000 -0.000000 0.000000 0.000000 -0.000000 0.000000 0.000000 -0.000000 0.000000 0.000000 0.000000 0.000000 0.000000 0.000000 0.000000 0.000000 -0.000000 0.000000 -76.570478 -0.000000 0.000000 0.000000 -0.000000 0.000000 0.000000 0.000000 0.000000 0.000000 -0.000000 0.000000 -76.570478 -0.000000 0.000000 0.000000 -0.000000 0.000000 0.000000 0.000000 0.000000 0.000000
95.568907 68.864539 374.680094 -0.045806 0.072452 76.440490 -0.059693 -0.061516 -76.440493 -0.000000 0.000000 0.000000 -0.000000 0.000000 0.000000 0.000000 0.000000 0.000000 -0.000000 0.000000 0.000000 -0.000000 0.000000 0.000000 0.828762 0.209223 -0.650867 1.674690 8.824612 -3.114637 0.000000 0.000000 0.000000 0.000000 0.000000 0.000000 -0.000000 0.000000 0.000000 -0.000000 0.000000 0.000000 -0.000000 0.000000 0.000000 1.090490 0.057944 0.239512 0.000000 0.000000 0.000000 0.000000 0.000000 0.000000 -0.059693 -0.061516 -76.440493 -0.000000 0.000000 0.000000 2.706320 0.032341 9.021023 0.000000 0.000000 0.000000 -0.059693 -0.061516 -76.440493 -0.000000 0.000000 0.000000 10.895879 -5.000033 2.622739 0.000000 0.000000 0.000000
95.516363 68.977912 374.525001 -0.086852 0.133923 76.282382 -0.109507 -0.116132 -76.282392 -0.000000 0.000000 0.000000 -1.127560 -0.355245 0.801027 0.000000 0.000000 0.000000 -0.000000 0.000000 0.000000 -0.000000 0.000000 0.000000 1.500418 0.423277 -1.209841 4.556542 18.776266 -7.403511 0.000000 0.000000 0.000000 0.000000 0.000000 0.000000 -0.000000 0.000000 0.000000 -0.000000 0.000000 0.000000 0.202248 0.910303 -0.000429 1.707848 -0.958096 0.484197 0.000000 0.000000 0.000000 0.000000 0.000000 0.000000 -0.109507 -0.116132 -76.282392 -0.000000 0.000000 0.000000 4.516215 1.025591 14.149150 0.000000 0.000000 0.000000 -0.109507 -0.116132 -76.282392 -0.000000 0.000000 0.000000 24.629376 -10.273152 6.957126 0.000000 0.000000 0.000000
95.464755 69.071340 374.387391 -0.123055 0.184262 76.095501 -0.149292 -0.163728 -76.095516 -0.000000 0.000000 0.000000 -1.470378 -0.422199 1.078273 0.000000 0.000000 0.000000 -0.000000 0.000000 0.000000 -0.000000 0.000000 0.000000 2.049280 0.650563 -1.701500 8.510758 28.268569 -12.522480 0.000000 0.000000 0.000000 0.000000 0.000000 0.000000 -0.000000 0.000000 0.000000 -0.000000 0.000000 0.000000 0.106963 1.096623 -0.045342 2.334296 -1.417514 0.740328 0.000000 0.000000 0.000000 0.000000 0.000000 0.000000 -0.149292 -0.163728 -76.095516 -0.000000 0.000000 0.000000 5.737846 2.719458 16.560924 0.000000 0.000000 0.000000 -0.121155 -1.097859 -76.228464 -1.804856 0.504188 0.288601 39.197260 -14.552571 12.150900 0.000000 0.000000 0.000000
95.414085 69.144823 374.267265 -0.154343 0.223342 75.879145 -0.178939 -0.204168 -75.879163 -0.000000 0.000000 0.000000 -1.663849 -0.411686 1.272665 0.000000 0.000000 0.000000 -0.000000 0.000000 0.000000 -0.000000 0.000000 0.000000 2.499207 0.898617 -2.144131 12.728139 35.689119 -17.506550 0.000000 0.000000 0.000000 0.000000 0.000000 0.000000 -0.000000 0.000000 0.000000 -0.000000 0.000000 0.000000 -0.123023 1.090162 -0.119614 2.796763 -1.851508 0.990462 0.000000 0.000000 0.000000 0.000000 0.000000 0.000000 -0.698294 -0.941832 -76.186893 -0.592329 0.680448 0.306054 6.622500 5.184969 16.717260 0.000000 0.000000 0.000000 -0.180651 -1.284278 -76.032404 -1.991693 0.662143 0.341301 48.808424 -16.614302 15.977273 0.000000 0.000000 0.000000
95.364353 69.198361 374.164622 -0.180657 0.251066 75.632569 -0.198386 -0.237306 -75.632584 -0.000000 0.000000 0.000000 -1.707419 -0.322424 1.383739 0.000000 0.000000 0.000000 -0.000000 0.000000 0.000000 -0.000000 0.000000 0.000000 2.866899 1.175172 -2.552049 15.959948 40.354879 -21.053178 0.000000 0.000000 0.000000 0.000000 0.000000 0.000000 0.888072 -0.126658 -0.226834 -0.888569 0.123127 0.228771 -0.484110 0.890402 -0.223059 3.089384 -2.254684 1.224886 0.000000 0.000000 0.000000 0.000000 0.000000 0.000000 -0.821668 -1.097013 -75.992014 -0.683266 0.812832 0.357020 7.422410 8.750378 14.433199 0.000000 0.000000 0.000000 -0.250234 -1.385898 -75.794950 -1.978875 0.818432 0.372197 51.979089 -17.322731 16.933580 0.000000 0.000000 0.000000
95.296416 69.206419 374.027577 -0.201849 0.285559 75.274158 -0.224871 -0.267806 -75.274181 -0.000000 0.000000 0.000000 -1.411363 0.024707 1.365564 0.000000 0.000000 0.000000 -0.000000 0.000000 0.000000 -0.000000 0.000000 0.000000 3.250941 1.472395 -2.985306 12.798284 37.110058 -18.175850 0.000000 0.000000 0.000000 0.000000 0.000000 0.000000 1.097672 -0.083786 -0.284787 -1.124291 -0.740440 0.503843 -0.821392 2.014948 -0.571248 2.206277 -3.321716 1.237674 0.000000 0.000000 0.000000 0.000000 0.000000 0.000000 -0.879079 -1.249044 -75.682100 -0.788970 0.876531 0.405294 9.601130 15.554162 11.139037 0.000000 0.000000 0.000000 -0.439925 -1.442396 -75.438467 -1.704516 1.072698 0.379507 47.038836 -17.051861 13.109808 0.000000 0.000000 0.000000
95.242575 69.185657 373.938124 -0.207750 0.294851 74.932650 -0.230709 -0.277255 -74.932674 -0.000000 0.000000 0.000000 -1.194223 0.243537 1.323932 0.000000 0.000000 0.000000 -0.000000 0.000000 0.000000 -0.000000 0.000000 0.000000 4.292421 2.396431 -4.242486 14.533093 42.246163 -18.793584 0.000000 0.000000 0.000000 0.000000 0.000000 0.000000 1.228370 -0.055106 -0.321130 -1.406348 -0.867262 0.548063 -2.028342 1.576917 -0.968008 3.732656 -4.189495 2.025220 0.000000 0.000000 0.000000 0.000000 0.000000 0.000000 -0.905304 -1.312437 -75.361503 -0.831094 0.914287 0.426102 12.498155 23.451528 -0.687377 0.000000 0.000000 0.000000 -0.629231 -1.298532 -75.072489 -0.884165 0.648135 0.139336 28.751771 -11.893572 4.733229 0.000000 0.000000 0.000000
95.191309 69.210003 373.911063 -0.237170 0.275313 74.646048 -0.202689 -0.301603 -74.646012 -0.000000 0.000000 0.000000 -0.832943 0.478742 1.155884 0.000000 0.000000 0.000000 -0.000000 0.000000 0.000000 -0.000000 0.000000 0.000000 3.883100 2.818360 -4.215130 11.416547 38.020718 -14.037672 0.000000 0.000000 0.000000 0.000000 0.000000 0.000000 1.306282 0.011469 -0.346073 -1.635920 -0.967442 0.562101 -2.766887 0.324440 -1.173313 4.882101 -3.978167 2.492310 0.000000 0.000000 0.000000 0.000000 0.000000 0.000000 -1.008396 -1.359909 -75.087242 -0.815301 1.050896 0.437025 19.840635 32.372292 -25.934770 0.000000 0.000000 0.000000 -0.659521 -1.162227 -74.761512 -0.710294 0.666961 0.113798 15.853034 -6.799324 -1.030612 0.000000 0.000000 0.000000
95.160517 69.227962 373.951188 -0.276606 0.224222 74.543293 -0.142393 -0.326359 -74.543157 -0.000000 0.000000 0.000000 -0.485238 0.718809 1.004452 0.000000 0.000000 0.000000 -0.000000 0.000000 0.000000 -0.000000 0.000000 0.000000 2.360479 1.754172 -2.559695 11.702199 35.402827 -13.119719 0.000000 0.000000 0.000000 0.000000 0.000000 0.000000 1.419768 0.088881 -0.381255 -1.903769 -1.005176 0.565402 -3.141848 -0.719965 -1.273883 5.743135 -3.249130 2.681595 0.000000 0.000000 0.000000 0.000000 0.000000 0.000000 -1.098492 -1.386991 -74.989805 -0.776786 1.198134 0.440474 26.655565 34.301390 -55.744288 0.000000 0.000000 0.000000 -0.546220 -1.031262 -74.636834 -0.041522 1.285548 0.251310 13.096114 -6.516530 -1.608386 0.000000 0.000000 0.000000
95.122003 69.254120 374.006577 -0.314335 0.168698 74.247230 -0.077023 -0.348328 -74.247001 -0.000000 0.000000 0.000000 -0.072487 1.124592 0.914644 0.000000 0.000000 0.000000 -0.000000 0.000000 0.000000 -0.000000 0.000000 0.000000 1.786787 0.523406 -1.454957 10.711868 32.174293 -13.010850 0.000000 0.000000 0.000000 0.000000 0.000000 0.000000 1.472837 0.127170 -0.397897 -2.085125 -0.891753 0.525075 -3.235577 -1.639947 -1.269692 4.422036 -2.455998 2.271573 0.000000 0.000000 0.000000 0.000000 0.000000 0.000000 -1.163761 -1.485944 -74.727115 0.006893 1.527644 0.429988 25.822519 32.050045 -74.310376 0.000000 0.000000 0.000000 -0.077023 -0.348328 -74.247001 0.470164 0.746927 0.180204 16.058850 -7.911123 0.232269 0.000000 0.000000 0.000000
95.150359 69.272973 374.073880 -0.297808 0.151761 73.952806 -0.063524 -0.328154 -73.952593 -0.000000 0.000000 0.000000 0.183567 1.453503 0.915185 0.000000 0.000000 0.000000 -0.000000 0.000000 0.000000 -0.000000 0.000000 0.000000 -0.000000 0.000000 0.000000 13.438410 32.614757 -14.269585 0.000000 0.000000 0.000000 0.000000 0.000000 0.000000 1.467437 0.230494 -0.403370 -2.139580 -0.820756 0.473719 -2.786634 -3.254010 -1.029860 3.426201 -0.361008 1.713049 0.000000 0.000000 0.000000 0.000000 0.000000 0.000000 -1.356955 -1.516854 -74.456718 0.369940 2.008407 0.471200 21.480612 29.647421 -82.616204 0.000000 0.000000 0.000000 -0.063524 -0.328154 -73.952593 0.515712 0.802018 0.192434 15.818063 -8.046558 3.933781 0.000000 0.000000 0.000000
95.102077 69.288883 374.079187 -0.388496 0.214757 73.903564 -0.098624 -0.432808 -73.903208 -0.000000 0.000000 0.000000 0.302139 1.209455 0.621670 0.000000 0.000000 0.000000 -0.000000 0.000000 0.000000 -0.000000 0.000000 0.000000 -0.928988 -0.268814 0.741038 17.376938 36.208182 -17.516542 0.000000 0.000000 0.000000 0.000000 0.000000 0.000000 1.447953 0.556509 -0.419900 -2.168377 -1.128733 0.467192 -2.298596 -3.090895 -0.875566 3.568622 0.271641 1.531542 0.000000 0.000000 0.000000 0.000000 0.000000 0.000000 -1.583571 -1.737702 -74.462458 0.101552 2.371886 0.574451 15.852817 27.525557 -84.946988 0.000000 0.000000 0.000000 -0.098624 -0.432808 -73.903208 0.013494 0.928845 0.265634 20.461784 -9.764091 1.731028 0.000000 0.000000 0.000000
95.067047 69.385262 374.081323 -0.476144 0.248981 74.285725 -0.110713 -0.525782 -74.285198 -0.000000 0.000000 0.000000 0.701508 0.855603 -0.018760 0.000000 0.000000 0.000000 -0.000000 0.000000 0.000000 -0.000000 0.000000 0.000000 -1.021660 -1.018215 1.231937 19.998907 39.583063 -19.439567 0.000000 0.000000 0.000000 0.000000 0.000000 0.000000 1.307634 0.647527 -0.388095 -2.046665 -1.388251 0.476006 -1.161486 -2.612654 -0.539525 1.584869 0.637876 0.894591 0.000000 0.000000 0.000000 0.000000 0.000000 0.000000 -1.676006 -1.826287 -74.851716 -0.032634 2.253558 0.550440 9.263443 25.497555 -82.769132 0.000000 0.000000 0.000000 -0.110713 -0.525782 -74.285198 -0.444636 0.724808 0.240450 36.833958 -16.278087 -0.425304 0.000000 0.000000 0.000000
95.030496 69.348410 374.152835 -0.524685 0.268095 73.701502 -0.110069 -0.578837 -73.700830 -0.000000 0.000000 0.000000 0.790146 0.829795 -0.121369 0.000000 0.000000 0.000000 -0.000000 0.000000 0.000000 -0.000000 0.000000 0.000000 -0.716677 -2.693745 2.028191 19.060503 38.408051 -20.543994 0.000000 0.000000 0.000000 0.000000 0.000000 0.000000 1.361796 1.135196 -0.434787 -2.081339 -2.057937 0.553523 -0.155864 -3.004031 -0.196930 0.881029 3.912236 -0.021436 0.000000 0.000000 0.000000 0.000000 0.000000 0.000000 -1.728350 -1.952499 -74.294349 -0.884056 1.929538 0.572657 9.168957 25.575984 -82.725350 0.000000 0.000000 0.000000 0.211236 -1.359115 -73.814514 -0.838897 -0.091064 0.118451 41.910767 -18.506643 -3.286357 0.000000 0.000000 0.000000
95.009259 69.272905 374.272704 -0.510569 0.309102 72.649475 -0.142773 -0.579516 -72.648820 -0.000000 0.000000 0.000000 0.656044 0.833608 0.007681 0.000000 0.000000 0.000000 -0.000000 0.000000 0.000000 -0.000000 0.000000 0.000000 -0.404409 -1.774446 1.292892 24.881698 44.822707 -25.858529 0.000000 0.000000 0.000000 0.000000 0.000000 0.000000 1.433926 1.890204 -0.504505 -2.103385 -2.809523 0.598231 0.563749 -3.565125 0.104950 -1.351981 5.688064 -0.782937 0.000000 0.000000 0.000000 0.000000 0.000000 0.000000 -1.856498 -2.124584 -73.303675 -0.987289 2.085177 0.632380 12.002986 26.513211 -82.174176 0.000000 0.000000 0.000000 0.562352 -1.278361 -72.757436 -0.876388 -0.466274 0.116482 40.219192 -18.326750 -6.197008 0.000000 0.000000 0.000000
